Coordinates
version=1
nRows=21
nColumns=33
inDegrees=yes

Units are S.I. units (second, meters, Newtons, ...)
Angles are in degrees.

endheader
time	ground_thorax_rot_x	ground_thorax_rot_y	ground_thorax_rot_z	ground_thorax_tx	ground_thorax_ty	ground_thorax_tz	clav_prot_r	clav_elev_r	scapula_abduction_r	scapula_elevation_r	scapula_upward_rot_r	scapula_winging_r	shoulder_elv_r	plane_of_elev_r	axial_rot_r	elbow_flexion_r	pro_sup_r	wrist_flex_r	wrist_dev_r	clav_prot_l	clav_elev_l	scapula_abduction_l	scapula_elevation_l	scapula_upward_rot_l	scapula_winging_l	shoulder_elv_l	plane_of_elev_l	axial_rot_l	elbow_flexion_l	pro_sup_l	wrist_flex_l	wrist_dev_l
      6.61000000	    -40.73321598	     -1.35396686	      3.14701173	    -77.05140636	    869.17172069	     -6.18779313	     -4.80161317	    -45.00000000	     45.00000000	    -45.00000000	     34.40470222	   1691.61348995	   -292.32338294	     21.72727844	   -179.99999979	    725.92405291	    252.18855476	     19.00676366	     14.00234274	     16.45923023	     43.30916096	    -45.00000000	    -45.00000000	    -27.42794685	   -636.56488490	  -3529.49661715	     22.86490993	    -33.07454887	      9.87432504	      7.31781214	     12.40911202	    -21.12651646
      6.62000000	    -40.63734787	     -1.39064672	      3.26511812	    -72.66063538	    865.66271062	     -5.90994048	     -5.02252991	    -45.00000000	     45.00000000	    -45.00000000	     34.44473416	   1691.50668347	   -292.93349420	     21.63650780	   -179.99999979	    726.02435746	    250.45667506	     18.65068848	     14.03575686	     16.49105953	     43.41463380	    -45.00000000	    -45.00000000	    -27.26652878	   -637.06071988	  -3529.85033742	     23.03882807	    -32.58707994	      9.75322110	      6.54811639	     12.68890228	    -20.90653735
      6.63000000	    -40.57672764	     -1.28343164	      3.24428763	    -68.29276356	    862.03865768	     -5.62203005	     -5.36535436	    -45.00000000	     45.00000000	    -45.00000000	     34.56726540	   1691.40578211	   -293.58981157	     21.52340763	   -179.99999979	    726.13005377	    248.91795023	     18.22724807	     14.02424245	     16.50466193	     43.51941093	    -45.00000000	    -45.00000000	    -26.98028231	   -637.68023767	  -3530.09669366	     23.10843374	    -32.16830345	      9.69539370	      5.87388340	     12.98275406	    -20.68930836
      6.64000000	    -40.51343835	     -1.10890368	      3.18572156	    -63.96091244	    858.32305303	     -5.31676924	     -5.76130721	    -45.00000000	     45.00000000	    -45.00000000	     34.78912961	   1691.25946732	   -294.17822377	     21.47762839	   -179.99999979	    726.37938503	    247.46019446	     17.83449018	     14.03929772	     16.58054993	     43.60662256	    -45.00000000	    -45.00000000	    -26.76307926	   -638.33051135	  -3530.34164386	     23.28462067	    -31.52239889	      9.57129894	      5.23948879	     13.26991925	    -20.43748276
      6.65000000	    -40.41981076	     -1.39344379	      3.55253627	    -59.66901130	    854.53885473	     -4.98666546	     -5.79892870	    -45.00000000	     45.00000000	    -45.00000000	     34.35124505	   1691.21007418	   -294.75591670	     21.28572347	   -179.99999979	    726.40529467	    246.29418353	     17.50880821	     13.96155635	     16.62173574	     43.71194661	    -45.00000000	    -45.00000000	    -26.83582809	   -638.75423533	  -3530.82060977	     23.46832553	    -31.26951780	      9.39880443	      4.88479291	     13.32682933	    -20.22282736
      6.66000000	    -40.30675685	     -1.46954749	      3.65738579	    -55.44048684	    850.71387828	     -4.61832888	     -5.95775353	    -45.00000000	     45.00000000	    -45.00000000	     34.25685782	   1691.15139616	   -295.32132763	     21.15496126	   -179.99999979	    726.52854729	    245.24339035	     17.11265045	     13.87376501	     16.80836420	     43.76142581	    -45.00000000	    -45.00000000	    -26.98148427	   -639.41549921	  -3531.11573609	     23.64507337	    -30.54589110	      9.25373390	      4.62733209	     13.49826025	    -20.00088936
      6.67000000	    -40.27166420	     -1.24343136	      3.45802334	    -51.26567927	    846.87051332	     -4.20110179	     -6.38349502	    -45.00000000	     45.00000000	    -45.00000000	     34.46026902	   1691.06038956	   -295.94746376	     21.02183119	   -179.99999979	    726.73609889	    244.14296588	     16.66489535	     13.77967685	     16.99595787	     43.79067235	    -45.00000000	    -45.00000000	    -26.94441313	   -640.26021886	  -3531.17974779	     23.82726535	    -29.34087156	      9.12329712	      4.62725311	     13.82955455	    -19.77546705
      6.68000000	    -40.18633895	     -1.38516327	      3.63389451	    -47.17618313	    843.04320337	     -3.72712920	     -6.48849255	    -45.00000000	     45.00000000	    -45.00000000	     34.13581031	   1691.05364784	   -296.45853213	     20.82470768	   -179.99999979	    726.81649199	    243.24402497	     16.30038082	     13.64435951	     17.26280722	     43.89078903	    -45.00000000	    -45.00000000	    -27.00521348	   -640.88835109	  -3531.56498769	     24.00614485	    -28.51880205	      8.91992392	      4.98442990	     13.87949637	    -19.60569921
      6.69000000	    -40.11411324	     -1.59347098	      3.78897860	    -43.18769664	    839.26495635	     -3.19693684	     -6.56153938	    -45.00000000	     45.00000000	    -45.00000000	     33.87248205	   1691.03254976	   -296.99526858	     20.62348502	   -179.99999979	    726.92545142	    242.52227696	     15.96309754	     13.50840597	     17.42602120	     43.95811760	    -45.00000000	    -45.00000000	    -27.21858292	   -641.43457197	  -3531.94113644	     24.30871880	    -27.80274615	      8.67242534	      5.59930199	     13.86589901	    -19.44162636
      6.70000000	    -40.09007375	     -1.47283379	      3.66006328	    -39.33658017	    835.57701135	     -2.62117320	     -6.91611726	    -45.00000000	     45.00000000	    -45.00000000	     33.81138498	   1690.96937155	   -297.58473958	     20.49506638	   -179.99999979	    727.07693284	    241.86104436	     15.60556196	     13.35861598	     17.40386190	     44.01153388	    -45.00000000	    -45.00000000	    -27.06310672	   -642.19956037	  -3532.10425404	     24.41250404	    -26.79164869	      8.56699915	      6.48365083	     13.99041315	    -19.30113603
      6.71000000	    -40.05668839	     -1.64041283	      3.77100548	    -35.62882169	    832.01794318	     -2.01473012	     -6.95422859	    -45.00000000	     45.00000000	    -45.00000000	     33.40313950	   1691.04674157	   -298.06937049	     20.24604942	   -179.99999979	    727.16726989	    241.36815098	     15.32089424	     13.20566958	     17.65751700	     44.28681379	    -45.00000000	    -45.00000000	    -27.12928532	   -642.73346195	  -3532.47315229	     24.64102308	    -25.96250450	      8.34159334	      7.46648952	     13.95338020	    -19.18069699
      6.72000000	    -39.86967699	     -1.66059734	      3.66274810	    -32.09238132	    828.62641870	     -1.39630263	     -7.15015866	    -45.00000000	     45.00000000	    -45.00000000	     33.09949472	   1691.20916796	   -298.55667752	     20.18037095	   -179.99999979	    727.22925600	    240.91763601	     15.05870863	     13.03878325	     17.25809606	     43.85621060	    -45.00000000	    -44.51113641	    -26.61777796	   -643.05637460	  -3532.69028470	     24.67039244	    -25.73292531	      8.17157340	      8.64627949	     13.93192654	    -19.04377979
      6.73000000	    -39.60045495	     -1.90356319	      3.79829294	    -28.73369223	    825.43262227	     -0.78013447	     -7.01153673	    -45.00000000	     45.00000000	    -45.00000000	     32.29745078	   1691.57626319	   -298.88641873	     20.04984839	   -179.99999979	    727.16163611	    240.59617621	     14.82786498	     12.84272590	     17.08879380	     43.47943659	    -45.00000000	    -43.82876874	    -26.23651578	   -643.22458609	  -3532.91160525	     24.63677558	    -25.83349829	      7.99590347	      9.63082971	     13.90004142	    -18.91905192
      6.74000000	    -39.27357511	     -2.68167805	      4.43939519	    -25.55872180	    822.46559133	     -0.18274278	     -6.11477747	    -45.00000000	     45.00000000	    -45.00000000	     29.78220502	   1692.28187553	   -299.32897428	     20.15760532	   -179.99999979	    727.03286710	    240.51447231	     14.90046469	     12.80228732	     16.50512888	     42.46182778	    -45.00000000	    -43.05326898	    -26.74750873	   -642.91449434	  -3533.28132608	     25.00406183	    -26.46563104	      7.72881342	     10.24089013	     13.70028187	    -18.73046371
      6.75000000	    -39.14777255	     -2.41347930	      4.08032967	    -22.55934931	    819.74099188	      0.38623527	     -6.72941640	    -45.00000000	     45.00000000	    -45.00000000	     30.74493163	   1692.34330294	   -299.42612146	     19.80230666	   -179.99999979	    727.09863925	    240.32616726	     14.38733769	     12.47033219	     16.69363927	     42.74129168	    -45.00000000	    -42.47354114	    -25.55383396	   -643.40490172	  -3533.30692472	     24.55249929	    -26.34556475	      7.56157119	     10.87847556	     13.85264323	    -18.60491223
      6.76000000	    -38.85424319	     -3.02555973	      4.51038762	    -19.74958844	    817.28199518	      0.91593692	     -6.04717897	    -45.00000000	     45.00000000	    -45.00000000	     28.72669272	   1692.98381022	   -299.77551212	     19.93684550	   -179.99999979	    726.98167291	    240.36847210	     14.45897505	     12.43767040	     16.19048012	     41.73918997	    -45.00000000	    -41.74496603	    -25.89460959	   -643.19290976	  -3533.55051695	     24.82530704	    -26.75806021	      7.27438620	     11.33876482	     13.79165995	    -18.42043206
      6.77000000	    -38.50963959	     -3.53533593	      4.83478607	    -17.14927745	    815.09966223	      1.39988001	     -5.70649873	    -45.00000000	     45.00000000	    -45.00000000	     27.16851848	   1693.53002195	   -300.01162200	     20.05507040	   -179.99999979	    726.84419865	    240.44742912	     14.25386896	     12.21844721	     15.77115841	     40.67613322	    -45.00000000	    -40.71800219	    -25.95063859	   -643.29025185	  -3533.11589354	     24.47064912	    -27.15916273	      7.21113905	     11.73658011	     13.98027094	    -18.26246311
      6.78000000	    -38.59461900	     -3.22697682	      4.33278898	    -14.76495259	    813.18660836	      1.83747233	     -6.17254288	    -45.00000000	     45.00000000	    -45.00000000	     28.37659869	   1693.49605354	   -300.09516552	     19.58814589	   -179.99999979	    726.87770647	    240.57694471	     14.06024856	     12.07696376	     16.12544666	     41.50607136	    -45.00000000	    -40.70074987	    -24.71262234	   -643.42414333	  -3533.89006679	     24.52687674	    -26.98019150	      6.75445035	     12.19288689	     13.80833897	    -18.18061908
      6.79000000	    -38.40016462	     -3.53580561	      4.42229200	    -12.62797151	    811.55023683	      2.22492706	     -5.97163294	    -45.00000000	     45.00000000	    -45.00000000	     27.52425337	   1693.93097531	   -300.22350721	     19.57172986	   -179.99999979	    726.80775564	    240.91959816	     13.93374834	     11.94281313	     15.83772257	     41.09741928	    -45.00000000	    -40.12856175	    -24.54150722	   -643.48080679	  -3533.91446226	     24.44397887	    -27.15879667	      6.47990202	     12.66260446	     13.83394542	    -18.09399073
      6.80000000	    -38.05528633	     -4.32813199	      4.89210534	    -10.75039183	    810.17145850	      2.56596323	     -5.80711651	    -45.00000000	     45.00000000	    -45.00000000	     26.13208401	   1694.44693400	   -300.28682691	     19.58139531	   -179.99999979	    726.60116846	    241.21417183	     13.63174195	     11.61940750	     15.51684909	     39.42972660	    -45.00000000	    -39.19457145	    -24.72653586	   -643.55213597	  -3533.44808725	     23.72205295	    -27.20502200	      6.60876871	     12.99461209	     14.04680181	    -18.05286449
      6.81000000	    -38.19505174	     -4.08091936	      4.43176527	     -9.14311956	    809.02682523	      2.86561445	     -5.56964501	    -45.00000000	     45.00000000	    -45.00000000	     26.03607774	   1694.56984423	   -300.58365256	     19.53636791	   -179.99999979	    726.53530167	    241.56012982	     13.80541758	     11.71200073	     15.58678579	     40.20339934	    -45.00000000	    -39.27354129	    -24.38371324	   -643.51743500	  -3533.78101704	     24.32779146	    -27.35311397	      6.16392408	     13.45275561	     13.91787755	    -18.00951921
